<?xml version="1.0" standalone="no"?><!DOCTYPE svg PUBLIC "-//W3C//DTD SVG 1.1//EN" "http://www.w3.org/Graphics/SVG/1.1/DTD/svg11.dtd"><svg t="1668669384808" class="icon" viewBox="0 0 1024 1024" version="1.1" xmlns="http://www.w3.org/2000/svg" p-id="9503" xmlns:xlink="http://www.w3.org/1999/xlink" width="200" height="200"><path d="M392.96 593.92c5.12-85.76 37.12-122.88 119.04-122.88s108.8 24.32 119.04 122.88c6.4 66.56 16.64 149.76 29.44 247.04C675.84 894.72 627.2 921.6 512 921.6s-163.84-26.88-149.76-81.92c17.92-107.52 26.88-189.44 30.72-245.76z m303.36 37.12c-1.28-15.36-3.84-29.44-5.12-43.52 0-6.4 0-12.8-2.56-19.2 108.8-20.48 181.76-60.16 181.76-104.96 0-66.56-160-119.04-358.4-119.04s-358.4 53.76-358.4 119.04c0 44.8 72.96 84.48 181.76 104.96 0 7.68-1.28 15.36-2.56 21.76 0 11.52 0 25.6-2.56 40.96C148.48 602.88 64 531.2 64 448c0-42.24 29.44-81.92 81.92-112.64 15.36-8.96 30.72-17.92 47.36-24.32 37.12-19.2 72.96-39.68 104.96-65.28 24.32-20.48 46.08-43.52 66.56-67.84C422.4 97.28 533.76 79.36 614.4 136.96c16.64 11.52 29.44 25.6 40.96 40.96 20.48 24.32 42.24 47.36 66.56 67.84 33.28 24.32 67.84 46.08 103.68 64 16.64 6.4 32 14.08 47.36 23.04h1.28c52.48 34.56 81.92 72.96 81.92 115.2 3.84 83.2-80.64 154.88-259.84 183.04z" fill="#ffffff" p-id="9504"></path></svg>